<?xml version="1.0" encoding="UTF-8"?>
<!-- Generator: Adobe Illustrator 23.0.3, SVG Export Plug-In . SVG Version: 6.00 Build 0)  -->
<svg fill="#d2fae6" version="1.1" id="Layer_1" xmlns="http://www.w3.org/2000/svg" xmlns:xlink="http://www.w3.org/1999/xlink" x="0px" y="0px" viewBox="0 0 56 56" style="enable-background:new 0 0 56 56;" xml:space="preserve">
<style type="text/css">
	.st0{fill:#FFFFFF;stroke:#191919;stroke-width:2;stroke-linecap:round;stroke-linejoin:round;}
	.st1{fill:none;stroke:#191919;stroke-width:2;stroke-linecap:round;stroke-linejoin:round;}
</style>
<path d="M28,0L28,0c15.5,0,28,12.5,28,28l0,0c0,15.5-12.5,28-28,28l0,0C12.5,56,0,43.5,0,28l0,0C0,12.5,12.5,0,28,0z"/>
<path class="st0" d="M12.1,14.1c0-1.1,1-2.1,2.1-2.1h27.3c1.1,0,2.1,1,2.1,2.1v27.4c0,1.1-1,2.1-2.1,2.1H14.1c-1.1,0-2.1-1-2.1-2.1  V14.1H12.1z"/>
<path class="st1" d="M21.7,36c1.5,0,2.7-1.2,2.7-2.7c0-1.5-1.2-2.7-2.7-2.7c-1.5,0-2.7,1.2-2.7,2.7C19,34.8,20.2,36,21.7,36z"/>
<path class="st1" d="M32.4,32.8c1.5,0,2.7-1.2,2.7-2.7c0-1.5-1.2-2.7-2.7-2.7c-1.5,0-2.7,1.2-2.7,2.7C29.7,31.6,30.9,32.8,32.4,32.8  z"/>
<path class="st1" d="M24.4,33.4v-9.1c0-0.9,0.6-1.7,1.4-2l7.8-2.2c0.4-0.1,0.6,0,0.9,0.2c0.3,0.2,0.4,0.5,0.4,0.9v9.1"/>
<path class="st1" d="M24.4,25.7l10.4-3.1"/>
</svg>